<mxfile host="drawio-plugin" modified="2022-09-28T07:44:53.961Z" agent="5.0 (Windows NT 6.2; Win64; x64) AppleWebKit/537.36 (KHTML, like Gecko) Chrome/98.0.4758.102 Safari/537.36" etag="w2escv8z6Z5vGr6JZrb4" version="15.5.4" type="embed"><diagram id="C5RBs43oDa-KdzZeNtuy" name="Page-1"><mxGraphModel dx="1122" dy="743" grid="1" gridSize="10" guides="1" tooltips="1" connect="1" arrows="1" fold="1" page="1" pageScale="1" pageWidth="827" pageHeight="1169" background="#F4F1DE" math="0" shadow="0"><root><mxCell id="WIyWlLk6GJQsqaUBKTNV-0"/><mxCell id="WIyWlLk6GJQsqaUBKTNV-1" parent="WIyWlLk6GJQsqaUBKTNV-0"/><mxCell id="O7ZP1nGBsIv45FqPrws6-0" value="Person" style="swimlane;fontStyle=1;align=center;verticalAlign=top;childLayout=stackLayout;horizontal=1;startSize=26;horizontalStack=0;resizeParent=1;resizeParentMax=0;resizeLast=0;collapsible=1;marginBottom=0;fillColor=#F2CC8F;strokeColor=#E07A5F;fontColor=#393C56;" parent="WIyWlLk6GJQsqaUBKTNV-1" vertex="1"><mxGeometry x="260" y="170" width="190" height="268" as="geometry"/></mxCell><mxCell id="O7ZP1nGBsIv45FqPrws6-1" value="- id: Long" style="text;strokeColor=none;fillColor=none;align=left;verticalAlign=top;spacingLeft=4;spacingRight=4;overflow=hidden;rotatable=0;points=[[0,0.5],[1,0.5]];portConstraint=eastwest;fontColor=#393C56;" parent="O7ZP1nGBsIv45FqPrws6-0" vertex="1"><mxGeometry y="26" width="190" height="26" as="geometry"/></mxCell><mxCell id="O7ZP1nGBsIv45FqPrws6-24" value="+ email: String" style="text;strokeColor=none;fillColor=none;align=left;verticalAlign=top;spacingLeft=4;spacingRight=4;overflow=hidden;rotatable=0;points=[[0,0.5],[1,0.5]];portConstraint=eastwest;fontColor=#393C56;" parent="O7ZP1nGBsIv45FqPrws6-0" vertex="1"><mxGeometry y="52" width="190" height="26" as="geometry"/></mxCell><mxCell id="O7ZP1nGBsIv45FqPrws6-25" value="+ firstName: String" style="text;strokeColor=none;fillColor=none;align=left;verticalAlign=top;spacingLeft=4;spacingRight=4;overflow=hidden;rotatable=0;points=[[0,0.5],[1,0.5]];portConstraint=eastwest;fontColor=#393C56;" parent="O7ZP1nGBsIv45FqPrws6-0" vertex="1"><mxGeometry y="78" width="190" height="26" as="geometry"/></mxCell><mxCell id="O7ZP1nGBsIv45FqPrws6-26" value="+ lastName: String" style="text;strokeColor=none;fillColor=none;align=left;verticalAlign=top;spacingLeft=4;spacingRight=4;overflow=hidden;rotatable=0;points=[[0,0.5],[1,0.5]];portConstraint=eastwest;fontColor=#393C56;" parent="O7ZP1nGBsIv45FqPrws6-0" vertex="1"><mxGeometry y="104" width="190" height="26" as="geometry"/></mxCell><mxCell id="O7ZP1nGBsIv45FqPrws6-2" value="" style="line;strokeWidth=1;fillColor=none;align=left;verticalAlign=middle;spacingTop=-1;spacingLeft=3;spacingRight=3;rotatable=0;labelPosition=right;points=[];portConstraint=eastwest;labelBackgroundColor=#F4F1DE;strokeColor=#E07A5F;fontColor=#393C56;" parent="O7ZP1nGBsIv45FqPrws6-0" vertex="1"><mxGeometry y="130" width="190" height="8" as="geometry"/></mxCell><mxCell id="O7ZP1nGBsIv45FqPrws6-37" value="+ getters &amp; setters" style="text;strokeColor=none;fillColor=none;align=left;verticalAlign=top;spacingLeft=4;spacingRight=4;overflow=hidden;rotatable=0;points=[[0,0.5],[1,0.5]];portConstraint=eastwest;fontColor=#393C56;" parent="O7ZP1nGBsIv45FqPrws6-0" vertex="1"><mxGeometry y="138" width="190" height="26" as="geometry"/></mxCell><mxCell id="O7ZP1nGBsIv45FqPrws6-3" value="+ getAllHobbies(): HobbyDTO" style="text;strokeColor=none;fillColor=none;align=left;verticalAlign=top;spacingLeft=4;spacingRight=4;overflow=hidden;rotatable=0;points=[[0,0.5],[1,0.5]];portConstraint=eastwest;fontColor=#393C56;" parent="O7ZP1nGBsIv45FqPrws6-0" vertex="1"><mxGeometry y="164" width="190" height="26" as="geometry"/></mxCell><mxCell id="O7ZP1nGBsIv45FqPrws6-40" value="+ getFullAddress(): AddressDTO" style="text;strokeColor=none;fillColor=none;align=left;verticalAlign=top;spacingLeft=4;spacingRight=4;overflow=hidden;rotatable=0;points=[[0,0.5],[1,0.5]];portConstraint=eastwest;fontColor=#393C56;" parent="O7ZP1nGBsIv45FqPrws6-0" vertex="1"><mxGeometry y="190" width="190" height="26" as="geometry"/></mxCell><mxCell id="O7ZP1nGBsIv45FqPrws6-45" value="+ addHobby(hobby): void" style="text;strokeColor=none;fillColor=none;align=left;verticalAlign=top;spacingLeft=4;spacingRight=4;overflow=hidden;rotatable=0;points=[[0,0.5],[1,0.5]];portConstraint=eastwest;fontColor=#393C56;" parent="O7ZP1nGBsIv45FqPrws6-0" vertex="1"><mxGeometry y="216" width="190" height="26" as="geometry"/></mxCell><mxCell id="O7ZP1nGBsIv45FqPrws6-48" value="+ removeHobby(hobby): void" style="text;strokeColor=none;fillColor=none;align=left;verticalAlign=top;spacingLeft=4;spacingRight=4;overflow=hidden;rotatable=0;points=[[0,0.5],[1,0.5]];portConstraint=eastwest;fontColor=#393C56;" parent="O7ZP1nGBsIv45FqPrws6-0" vertex="1"><mxGeometry y="242" width="190" height="26" as="geometry"/></mxCell><mxCell id="O7ZP1nGBsIv45FqPrws6-44" style="edgeStyle=orthogonalEdgeStyle;rounded=0;orthogonalLoop=1;jettySize=auto;html=1;entryX=1.019;entryY=0.269;entryDx=0;entryDy=0;entryPerimeter=0;fontSize=20;strokeColor=#E07A5F;labelBackgroundColor=#F4F1DE;fontColor=#393C56;" parent="WIyWlLk6GJQsqaUBKTNV-1" source="O7ZP1nGBsIv45FqPrws6-4" target="O7ZP1nGBsIv45FqPrws6-32" edge="1"><mxGeometry relative="1" as="geometry"/></mxCell><mxCell id="O7ZP1nGBsIv45FqPrws6-4" value="CityInfo" style="swimlane;fontStyle=1;align=center;verticalAlign=top;childLayout=stackLayout;horizontal=1;startSize=26;horizontalStack=0;resizeParent=1;resizeParentMax=0;resizeLast=0;collapsible=1;marginBottom=0;fillColor=#F2CC8F;strokeColor=#E07A5F;fontColor=#393C56;" parent="WIyWlLk6GJQsqaUBKTNV-1" vertex="1"><mxGeometry x="520" y="550" width="160" height="112" as="geometry"/></mxCell><mxCell id="O7ZP1nGBsIv45FqPrws6-5" value="+ zipCode: String" style="text;strokeColor=none;fillColor=none;align=left;verticalAlign=top;spacingLeft=4;spacingRight=4;overflow=hidden;rotatable=0;points=[[0,0.5],[1,0.5]];portConstraint=eastwest;fontColor=#393C56;" parent="O7ZP1nGBsIv45FqPrws6-4" vertex="1"><mxGeometry y="26" width="160" height="26" as="geometry"/></mxCell><mxCell id="O7ZP1nGBsIv45FqPrws6-33" value="+ city: String" style="text;strokeColor=none;fillColor=none;align=left;verticalAlign=top;spacingLeft=4;spacingRight=4;overflow=hidden;rotatable=0;points=[[0,0.5],[1,0.5]];portConstraint=eastwest;fontColor=#393C56;" parent="O7ZP1nGBsIv45FqPrws6-4" vertex="1"><mxGeometry y="52" width="160" height="26" as="geometry"/></mxCell><mxCell id="O7ZP1nGBsIv45FqPrws6-6" value="" style="line;strokeWidth=1;fillColor=none;align=left;verticalAlign=middle;spacingTop=-1;spacingLeft=3;spacingRight=3;rotatable=0;labelPosition=right;points=[];portConstraint=eastwest;labelBackgroundColor=#F4F1DE;strokeColor=#E07A5F;fontColor=#393C56;" parent="O7ZP1nGBsIv45FqPrws6-4" vertex="1"><mxGeometry y="78" width="160" height="8" as="geometry"/></mxCell><mxCell id="O7ZP1nGBsIv45FqPrws6-7" value="+ getter &amp; setter" style="text;strokeColor=none;fillColor=none;align=left;verticalAlign=top;spacingLeft=4;spacingRight=4;overflow=hidden;rotatable=0;points=[[0,0.5],[1,0.5]];portConstraint=eastwest;fontColor=#393C56;" parent="O7ZP1nGBsIv45FqPrws6-4" vertex="1"><mxGeometry y="86" width="160" height="26" as="geometry"/></mxCell><mxCell id="O7ZP1nGBsIv45FqPrws6-21" style="edgeStyle=orthogonalEdgeStyle;rounded=0;orthogonalLoop=1;jettySize=auto;html=1;entryX=0.5;entryY=0;entryDx=0;entryDy=0;strokeColor=#E07A5F;labelBackgroundColor=#F4F1DE;fontColor=#393C56;" parent="WIyWlLk6GJQsqaUBKTNV-1" source="O7ZP1nGBsIv45FqPrws6-8" target="O7ZP1nGBsIv45FqPrws6-0" edge="1"><mxGeometry relative="1" as="geometry"/></mxCell><mxCell id="O7ZP1nGBsIv45FqPrws6-8" value="Phone" style="swimlane;fontStyle=1;align=center;verticalAlign=top;childLayout=stackLayout;horizontal=1;startSize=26;horizontalStack=0;resizeParent=1;resizeParentMax=0;resizeLast=0;collapsible=1;marginBottom=0;fillColor=#F2CC8F;strokeColor=#E07A5F;fontColor=#393C56;" parent="WIyWlLk6GJQsqaUBKTNV-1" vertex="1"><mxGeometry x="490" y="70" width="160" height="112" as="geometry"/></mxCell><mxCell id="O7ZP1nGBsIv45FqPrws6-9" value="+ number: String" style="text;strokeColor=none;fillColor=none;align=left;verticalAlign=top;spacingLeft=4;spacingRight=4;overflow=hidden;rotatable=0;points=[[0,0.5],[1,0.5]];portConstraint=eastwest;fontColor=#393C56;" parent="O7ZP1nGBsIv45FqPrws6-8" vertex="1"><mxGeometry y="26" width="160" height="26" as="geometry"/></mxCell><mxCell id="O7ZP1nGBsIv45FqPrws6-31" value="+ description: String" style="text;strokeColor=none;fillColor=none;align=left;verticalAlign=top;spacingLeft=4;spacingRight=4;overflow=hidden;rotatable=0;points=[[0,0.5],[1,0.5]];portConstraint=eastwest;fontColor=#393C56;" parent="O7ZP1nGBsIv45FqPrws6-8" vertex="1"><mxGeometry y="52" width="160" height="26" as="geometry"/></mxCell><mxCell id="O7ZP1nGBsIv45FqPrws6-10" value="" style="line;strokeWidth=1;fillColor=none;align=left;verticalAlign=middle;spacingTop=-1;spacingLeft=3;spacingRight=3;rotatable=0;labelPosition=right;points=[];portConstraint=eastwest;labelBackgroundColor=#F4F1DE;strokeColor=#E07A5F;fontColor=#393C56;" parent="O7ZP1nGBsIv45FqPrws6-8" vertex="1"><mxGeometry y="78" width="160" height="8" as="geometry"/></mxCell><mxCell id="O7ZP1nGBsIv45FqPrws6-11" value="+ getter &amp; setter" style="text;strokeColor=none;fillColor=none;align=left;verticalAlign=top;spacingLeft=4;spacingRight=4;overflow=hidden;rotatable=0;points=[[0,0.5],[1,0.5]];portConstraint=eastwest;fontColor=#393C56;" parent="O7ZP1nGBsIv45FqPrws6-8" vertex="1"><mxGeometry y="86" width="160" height="26" as="geometry"/></mxCell><mxCell id="O7ZP1nGBsIv45FqPrws6-12" value="Hobby" style="swimlane;fontStyle=1;align=center;verticalAlign=top;childLayout=stackLayout;horizontal=1;startSize=26;horizontalStack=0;resizeParent=1;resizeParentMax=0;resizeLast=0;collapsible=1;marginBottom=0;fillColor=#F2CC8F;strokeColor=#E07A5F;fontColor=#393C56;" parent="WIyWlLk6GJQsqaUBKTNV-1" vertex="1"><mxGeometry x="20" y="200" width="160" height="138" as="geometry"/></mxCell><mxCell id="O7ZP1nGBsIv45FqPrws6-13" value="+ id: Long" style="text;strokeColor=none;fillColor=none;align=left;verticalAlign=top;spacingLeft=4;spacingRight=4;overflow=hidden;rotatable=0;points=[[0,0.5],[1,0.5]];portConstraint=eastwest;fontColor=#393C56;" parent="O7ZP1nGBsIv45FqPrws6-12" vertex="1"><mxGeometry y="26" width="160" height="26" as="geometry"/></mxCell><mxCell id="O7ZP1nGBsIv45FqPrws6-27" value="+ name: String" style="text;strokeColor=none;fillColor=none;align=left;verticalAlign=top;spacingLeft=4;spacingRight=4;overflow=hidden;rotatable=0;points=[[0,0.5],[1,0.5]];portConstraint=eastwest;fontColor=#393C56;" parent="O7ZP1nGBsIv45FqPrws6-12" vertex="1"><mxGeometry y="52" width="160" height="26" as="geometry"/></mxCell><mxCell id="O7ZP1nGBsIv45FqPrws6-30" value="+ description: String" style="text;strokeColor=none;fillColor=none;align=left;verticalAlign=top;spacingLeft=4;spacingRight=4;overflow=hidden;rotatable=0;points=[[0,0.5],[1,0.5]];portConstraint=eastwest;fontColor=#393C56;" parent="O7ZP1nGBsIv45FqPrws6-12" vertex="1"><mxGeometry y="78" width="160" height="26" as="geometry"/></mxCell><mxCell id="O7ZP1nGBsIv45FqPrws6-14" value="" style="line;strokeWidth=1;fillColor=none;align=left;verticalAlign=middle;spacingTop=-1;spacingLeft=3;spacingRight=3;rotatable=0;labelPosition=right;points=[];portConstraint=eastwest;labelBackgroundColor=#F4F1DE;strokeColor=#E07A5F;fontColor=#393C56;" parent="O7ZP1nGBsIv45FqPrws6-12" vertex="1"><mxGeometry y="104" width="160" height="8" as="geometry"/></mxCell><mxCell id="O7ZP1nGBsIv45FqPrws6-15" value="+ getter &amp; setter" style="text;strokeColor=none;fillColor=none;align=left;verticalAlign=top;spacingLeft=4;spacingRight=4;overflow=hidden;rotatable=0;points=[[0,0.5],[1,0.5]];portConstraint=eastwest;fontColor=#393C56;" parent="O7ZP1nGBsIv45FqPrws6-12" vertex="1"><mxGeometry y="112" width="160" height="26" as="geometry"/></mxCell><mxCell id="O7ZP1nGBsIv45FqPrws6-22" style="edgeStyle=orthogonalEdgeStyle;rounded=0;orthogonalLoop=1;jettySize=auto;html=1;entryX=1.006;entryY=1.192;entryDx=0;entryDy=0;entryPerimeter=0;strokeColor=#E07A5F;exitX=0.5;exitY=0;exitDx=0;exitDy=0;labelBackgroundColor=#F4F1DE;fontColor=#393C56;" parent="WIyWlLk6GJQsqaUBKTNV-1" source="O7ZP1nGBsIv45FqPrws6-16" target="O7ZP1nGBsIv45FqPrws6-24" edge="1"><mxGeometry relative="1" as="geometry"/></mxCell><mxCell id="O7ZP1nGBsIv45FqPrws6-16" value="Address" style="swimlane;fontStyle=1;align=center;verticalAlign=top;childLayout=stackLayout;horizontal=1;startSize=26;horizontalStack=0;resizeParent=1;resizeParentMax=0;resizeLast=0;collapsible=1;marginBottom=0;fillColor=#F2CC8F;strokeColor=#E07A5F;fontColor=#393C56;" parent="WIyWlLk6GJQsqaUBKTNV-1" vertex="1"><mxGeometry x="520" y="370" width="160" height="112" as="geometry"/></mxCell><mxCell id="O7ZP1nGBsIv45FqPrws6-17" value="+ street: String" style="text;strokeColor=none;fillColor=none;align=left;verticalAlign=top;spacingLeft=4;spacingRight=4;overflow=hidden;rotatable=0;points=[[0,0.5],[1,0.5]];portConstraint=eastwest;fontColor=#393C56;" parent="O7ZP1nGBsIv45FqPrws6-16" vertex="1"><mxGeometry y="26" width="160" height="26" as="geometry"/></mxCell><mxCell id="O7ZP1nGBsIv45FqPrws6-32" value="+ additionalInfo: String" style="text;strokeColor=none;fillColor=none;align=left;verticalAlign=top;spacingLeft=4;spacingRight=4;overflow=hidden;rotatable=0;points=[[0,0.5],[1,0.5]];portConstraint=eastwest;fontColor=#393C56;" parent="O7ZP1nGBsIv45FqPrws6-16" vertex="1"><mxGeometry y="52" width="160" height="26" as="geometry"/></mxCell><mxCell id="O7ZP1nGBsIv45FqPrws6-18" value="" style="line;strokeWidth=1;fillColor=none;align=left;verticalAlign=middle;spacingTop=-1;spacingLeft=3;spacingRight=3;rotatable=0;labelPosition=right;points=[];portConstraint=eastwest;labelBackgroundColor=#F4F1DE;strokeColor=#E07A5F;fontColor=#393C56;" parent="O7ZP1nGBsIv45FqPrws6-16" vertex="1"><mxGeometry y="78" width="160" height="8" as="geometry"/></mxCell><mxCell id="O7ZP1nGBsIv45FqPrws6-19" value="+ getter &amp; setter" style="text;strokeColor=none;fillColor=none;align=left;verticalAlign=top;spacingLeft=4;spacingRight=4;overflow=hidden;rotatable=0;points=[[0,0.5],[1,0.5]];portConstraint=eastwest;fontColor=#393C56;" parent="O7ZP1nGBsIv45FqPrws6-16" vertex="1"><mxGeometry y="86" width="160" height="26" as="geometry"/></mxCell><mxCell id="O7ZP1nGBsIv45FqPrws6-35" value="&lt;h1 style=&quot;font-size: 20px;&quot;&gt;Visibilty&lt;/h1&gt;&lt;div style=&quot;font-size: 20px;&quot;&gt;- Private&lt;/div&gt;&lt;div style=&quot;font-size: 20px;&quot;&gt;+ Public&lt;/div&gt;&lt;div style=&quot;font-size: 20px;&quot;&gt;# Protected&lt;/div&gt;" style="text;html=1;strokeColor=none;fillColor=none;spacing=5;spacingTop=-20;whiteSpace=wrap;overflow=hidden;rounded=0;fontSize=20;fontColor=#393C56;" parent="WIyWlLk6GJQsqaUBKTNV-1" vertex="1"><mxGeometry x="30" y="30" width="120" height="120" as="geometry"/></mxCell><mxCell id="O7ZP1nGBsIv45FqPrws6-36" style="edgeStyle=orthogonalEdgeStyle;rounded=0;orthogonalLoop=1;jettySize=auto;html=1;entryX=-0.019;entryY=0.091;entryDx=0;entryDy=0;entryPerimeter=0;fontSize=20;strokeColor=#E07A5F;labelBackgroundColor=#F4F1DE;fontColor=#393C56;" parent="WIyWlLk6GJQsqaUBKTNV-1" source="O7ZP1nGBsIv45FqPrws6-27" target="O7ZP1nGBsIv45FqPrws6-0" edge="1"><mxGeometry relative="1" as="geometry"/></mxCell></root></mxGraphModel></diagram></mxfile>